<?xml version="1.0" encoding="UTF-8"?>
<svg xmlns="http://www.w3.org/2000/svg" xmlns:xlink="http://www.w3.org/1999/xlink" width="60.08pt" height="57.16657pt" viewBox="0 0 60.08 57.16657" version="1.1">
<defs>
<clipPath id="clip1">
  <path d="M 0 0 L 60.078125 0 L 60.078125 57.167969 L 0 57.167969 Z M 0 0 "/>
</clipPath>
</defs>
<g id="surface1">
<g clip-path="url(#clip1)" clip-rule="nonzero">
<path style="fill:none;stroke-width:0.3985;stroke-linecap:butt;stroke-linejoin:miter;stroke:rgb(0%,0%,0%);stroke-opacity:1;stroke-miterlimit:10;" d="M -26.959969 8.760609 L -16.663094 -22.934704 L 16.661125 -22.934704 L 26.958 8.760609 L 0.00096875 28.346546 L -26.959969 8.760609 " transform="matrix(1,0,0,-1,30.167,31.37389)"/>
</g>
<path style=" stroke:none;fill-rule:nonzero;fill:rgb(0%,0%,0%);fill-opacity:1;" d="M 5.199219 22.613281 C 5.199219 21.515625 4.308594 20.621094 3.207031 20.621094 C 2.105469 20.621094 1.214844 21.515625 1.214844 22.613281 C 1.214844 23.714844 2.105469 24.605469 3.207031 24.605469 C 4.308594 24.605469 5.199219 23.714844 5.199219 22.613281 Z M 5.199219 22.613281 "/>
<path style=" stroke:none;fill-rule:nonzero;fill:rgb(0%,0%,0%);fill-opacity:1;" d="M 15.496094 54.308594 C 15.496094 53.207031 14.605469 52.316406 13.503906 52.316406 C 12.40625 52.316406 11.511719 53.207031 11.511719 54.308594 C 11.511719 55.40625 12.40625 56.300781 13.503906 56.300781 C 14.605469 56.300781 15.496094 55.40625 15.496094 54.308594 Z M 15.496094 54.308594 "/>
<path style=" stroke:none;fill-rule:nonzero;fill:rgb(0%,0%,0%);fill-opacity:1;" d="M 48.820312 54.308594 C 48.820312 53.207031 47.929688 52.316406 46.828125 52.316406 C 45.726562 52.316406 44.835938 53.207031 44.835938 54.308594 C 44.835938 55.40625 45.726562 56.300781 46.828125 56.300781 C 47.929688 56.300781 48.820312 55.40625 48.820312 54.308594 Z M 48.820312 54.308594 "/>
<path style=" stroke:none;fill-rule:nonzero;fill:rgb(0%,0%,0%);fill-opacity:1;" d="M 59.121094 22.613281 C 59.121094 21.515625 58.226562 20.621094 57.125 20.621094 C 56.027344 20.621094 55.132812 21.515625 55.132812 22.613281 C 55.132812 23.714844 56.027344 24.605469 57.125 24.605469 C 58.226562 24.605469 59.121094 23.714844 59.121094 22.613281 Z M 59.121094 22.613281 "/>
<path style=" stroke:none;fill-rule:nonzero;fill:rgb(0%,0%,0%);fill-opacity:1;" d="M 32.160156 3.027344 C 32.160156 1.925781 31.265625 1.035156 30.167969 1.035156 C 29.066406 1.035156 28.175781 1.925781 28.175781 3.027344 C 28.175781 4.128906 29.066406 5.019531 30.167969 5.019531 C 31.265625 5.019531 32.160156 4.128906 32.160156 3.027344 Z M 32.160156 3.027344 "/>
</g>
</svg>
